<svg width="24" height="24" viewBox="0 0 24 24" fill="none" xmlns="http://www.w3.org/2000/svg">
<path d="M21.7114 19.7263L18.0014 16.1486C19.4415 14.4028 20.1389 12.187 19.9502 9.95677C19.7615 7.72649 18.701 5.65126 16.9869 4.1578C15.2727 2.66433 13.0352 1.86614 10.7343 1.92735C8.43341 1.98856 6.24409 2.90452 4.61651 4.48689C2.98893 6.06926 2.0468 8.19776 1.98384 10.4347C1.92088 12.6717 2.74188 14.8471 4.27801 16.5136C5.81415 18.1802 7.94867 19.2112 10.2427 19.3946C12.5367 19.5781 14.8158 18.9 16.6114 17.4999L20.2914 21.0777C20.3843 21.1688 20.4949 21.2412 20.6168 21.2905C20.7387 21.3399 20.8694 21.3653 21.0014 21.3653C21.1334 21.3653 21.2641 21.3399 21.3859 21.2905C21.5078 21.2412 21.6184 21.1688 21.7114 21.0777C21.8916 20.8964 21.9924 20.6542 21.9924 20.402C21.9924 20.1499 21.8916 19.9076 21.7114 19.7263ZM11.0014 17.4999C9.6169 17.4999 8.26352 17.1008 7.11238 16.353C5.96123 15.6052 5.06403 14.5423 4.53421 13.2988C4.0044 12.0552 3.86578 10.6868 4.13587 9.36669C4.40597 8.04655 5.07265 6.83391 6.05162 5.88214C7.03059 4.93036 8.27787 4.2822 9.63574 4.0196C10.9936 3.75701 12.4011 3.89178 13.6802 4.40688C14.9592 4.92197 16.0525 5.79426 16.8217 6.91343C17.5908 8.0326 18.0014 9.34838 18.0014 10.6944C18.0014 12.4993 17.2639 14.2304 15.9511 15.5066C14.6384 16.7829 12.8579 17.4999 11.0014 17.4999Z" fill="white"/>
</svg>
