<svg width="9" height="8" viewBox="0 0 9 8" fill="none" xmlns="http://www.w3.org/2000/svg">
<path d="M8.74746 0.570774C8.5875 0.36532 8.37111 0.25 8.14556 0.25C7.92001 0.25 7.70362 0.36532 7.54366 0.570774L4.47866 4.47575L1.45634 0.570774C1.29638 0.36532 1.07999 0.25 0.854442 0.25C0.628891 0.25 0.412504 0.36532 0.252541 0.570774C0.172519 0.673321 0.109004 0.795325 0.0656599 0.929749C0.0223156 1.06417 0 1.20835 0 1.35398C0 1.4996 0.0223156 1.64378 0.0656599 1.7782C0.109004 1.91263 0.172519 2.03463 0.252541 2.13718L3.87249 6.81433C3.95185 6.91772 4.04628 6.99979 4.15032 7.05579C4.25436 7.11179 4.36595 7.14062 4.47866 7.14062C4.59136 7.14062 4.70295 7.11179 4.80699 7.05579C4.91103 6.99979 5.00546 6.91772 5.08483 6.81433L8.74746 2.13718C8.82748 2.03463 8.89099 1.91263 8.93434 1.7782C8.97768 1.64378 9 1.4996 9 1.35398C9 1.20835 8.97768 1.06417 8.93434 0.929749C8.89099 0.795325 8.82748 0.673321 8.74746 0.570774Z" fill="#001A4A"/>
</svg>
