<svg width="129" height="76" viewBox="0 0 129 76" fill="none" xmlns="http://www.w3.org/2000/svg">
<g clip-path="url(#clip0)">
<path d="M93.7137 59.3165C78.9662 55.277 75.4159 50.1563 74.5966 48.0539C75.6761 47.2709 76.6427 46.3142 77.4641 45.2157C84.4419 36.6562 83.1993 21.9397 83.0764 20.5882C82.3936 3.76941 71.1964 -0.28513 64.642 0.015206C58.0875 -0.28513 46.8903 3.76941 46.2075 20.5882C46.0573 21.9397 44.9786 36.6562 51.8061 45.2157C52.8155 46.4246 53.963 47.4845 55.2199 48.3693C54.1275 50.4716 50.1675 55.4272 36.2393 59.3315C30.3676 60.9834 27.5 66.9901 28.0462 76.0002L32.5524 75.6998C32.2793 71.9456 32.689 65.4884 37.3317 64.2871C52.6255 60.0824 57.6779 54.2258 59.3165 50.4716C60.9638 50.9623 62.6622 51.2147 64.3689 51.2225H64.9287C66.8259 51.2396 68.7142 50.9357 70.5273 50.3215C72.1386 53.9255 77.0545 59.9322 92.6213 64.1369C97.4006 65.4884 97.6737 71.9456 97.4006 75.6998L101.907 76.0002C102.453 66.9901 99.4489 60.9834 93.7137 59.3165ZM64.7649 46.2669H64.6283C62.8636 46.3442 61.1051 45.9942 59.477 45.2416C57.8488 44.4891 56.3909 43.3525 55.2063 41.9121C49.4711 34.8542 50.7001 21.1889 50.7001 21.0387V20.8885C51.3828 6.17209 61.2145 4.97075 64.0821 4.97075H64.6283C66.8131 4.82058 77.8738 5.12091 78.5565 20.8885V21.0387C78.5565 21.2039 79.7855 34.719 74.0504 41.9121C72.8825 43.3351 71.447 44.4618 69.8436 45.2138C68.2402 45.9658 66.5072 46.3251 64.7649 46.2669Z" fill="white"/>
<path d="M122.54 59.0293C112.982 56.4765 110.114 53.1878 109.295 51.6861C109.939 51.2725 110.531 50.7677 111.056 50.1845C116.245 43.7272 115.426 32.9151 115.289 31.864C114.757 19.2499 106.277 16.0963 101.224 16.2465C96.1721 16.0963 87.7059 19.0997 87.1597 31.864C87.0231 33.0653 86.2038 43.8774 91.3928 50.1845C92.5769 51.6756 94.0508 52.8547 95.7054 53.6345C97.36 54.4143 99.1529 54.7749 100.951 54.6895H101.511C102.758 54.6584 103.997 54.4566 105.198 54.0888C106.7 56.942 110.66 61.1467 121.448 63.9999C124.452 64.9159 124.588 69.1056 124.452 71.6735L128.958 71.9738C129.368 65.0361 127.046 60.3959 122.54 59.0293ZM101.224 49.7189C100.027 49.8201 98.8246 49.6151 97.7112 49.1202C96.5978 48.6252 95.6036 47.8536 94.8065 46.8657C90.8466 41.9102 91.6659 32.2994 91.6659 32.2994V32.1493C92.0755 21.9379 98.7665 21.187 100.815 21.187H101.224C102.727 21.187 110.237 21.3372 110.646 32.1493V32.2994C110.646 32.4496 111.466 41.9102 107.506 46.8657C106.728 47.8398 105.757 48.6039 104.668 49.0987C103.579 49.5935 102.4 49.8057 101.224 49.7189Z" fill="white"/>
<path d="M37.4575 50.1713C42.6464 43.7141 41.8271 32.902 41.7042 31.8508C41.158 19.0865 32.6782 16.0831 27.6258 16.2333C22.5734 16.0831 14.1209 19.0865 13.561 31.8508C13.4244 33.0521 12.6051 43.8642 17.7941 50.1713C18.2862 50.8861 18.8923 51.4967 19.5829 51.9733C18.8865 53.3248 16.0189 56.6285 6.46032 59.1814C1.95413 60.3827 -0.367241 65.1881 0.0424129 71.9457L4.54861 71.6454C4.41205 69.0925 4.54861 64.8878 7.55273 63.9868C18.4768 60.9834 22.4368 56.9289 23.8023 54.0757C25.0039 54.4435 26.2424 54.6452 27.4892 54.6763H27.8989C29.6888 54.693 31.4624 54.3012 33.1076 53.5258C34.7529 52.7504 36.234 51.6082 37.4575 50.1713ZM27.6258 49.5706C26.4315 49.639 25.2381 49.419 24.1293 48.9261C23.0206 48.4332 22.0234 47.6793 21.2079 46.7174C17.3844 41.7619 18.2037 32.1511 18.2037 32.1511V32.001C18.6134 21.7895 25.3044 21.0387 27.3527 21.0387H27.7623C29.2644 21.0387 36.7747 21.1889 37.1844 32.001V32.1511C37.1844 32.3013 38.0037 41.7619 34.0437 46.7174C33.2383 47.6937 32.2428 48.4573 31.1315 48.9513C30.0202 49.4454 28.8218 49.6571 27.6258 49.5706Z" fill="white"/>
</g>
<defs>
<clipPath id="clip0">
<rect width="129" height="76" fill="white"/>
</clipPath>
</defs>
</svg>
