<svg width="74" height="90" viewBox="0 0 74 90" fill="none" xmlns="http://www.w3.org/2000/svg">
<path d="M11.0083 89.9981C10.8099 89.9981 10.7107 89.9981 10.5085 89.9001C9.90943 89.8021 9.51263 89.4063 9.21119 88.9164L0.240521 71.7847C-0.259334 70.8989 0.0421109 69.7154 0.938787 69.2254L20.3754 57.2128C21.6727 56.425 23.1647 56.033 24.6604 56.131L44.395 56.6248C47.5849 56.7228 50.2749 59.2822 50.3741 62.4333C50.4733 65.5844 48.0809 68.4378 44.891 68.7355L37.8129 69.5233C37.2138 69.6213 36.9162 70.0171 36.817 70.2131C36.7178 70.4091 36.5194 70.9029 36.817 71.3929C37.0155 71.785 37.5153 72.0827 38.0114 72.0827L49.4733 72.5765C51.5681 71.099 59.4398 65.7842 64.1255 62.6327C66.9148 60.7632 70.8029 61.4529 72.7986 64.2083L72.8978 64.3063C74.7903 67.0617 74.1951 70.8046 71.5012 72.6742L53.5679 85.369C51.2746 87.0426 48.3862 87.7324 45.5931 87.2386L23.1645 83.8914C21.5695 83.6954 20.0737 83.9894 18.7802 84.9732L12.202 89.6999C11.8052 89.8997 11.4083 89.9977 11.0076 89.9977L11.0083 89.9981ZM4.72773 71.5851L11.8058 85.075L16.4915 81.7278C18.5863 80.2503 21.1772 79.5604 23.768 79.9562L46.1966 83.3034C47.9899 83.5974 49.7833 83.1074 51.279 82.1236L69.1215 69.5195C70.1174 68.8297 70.3159 67.5519 69.6214 66.5643L69.5222 66.4663C68.8239 65.4826 67.4274 65.1848 66.4314 65.8746C61.0475 69.7155 51.1765 76.3114 51.1765 76.3114C50.7797 76.5074 50.3791 76.7034 49.9822 76.7034L37.8218 76.2096C35.9293 76.1116 34.1321 75.0298 33.2354 73.3525C32.4379 71.777 32.5371 70.0053 33.3346 68.5278C34.1321 67.0503 35.727 65.9685 37.4212 65.7724L44.4993 64.9846C45.5944 64.8866 46.4911 63.9028 46.3919 62.7192C46.2927 61.6374 45.396 60.7516 44.2971 60.6499L24.4629 60.1561C23.6654 60.1561 23.0663 60.2541 22.4711 60.6499L4.72773 71.5851Z" fill="#005EB8"/>
<path d="M47.3825 54.0026C47.0189 54.0026 46.6519 53.9051 46.2882 53.8075C31.86 47.6299 27.0181 36.0626 28.57 27.3367C29.6643 21.0616 33.9574 16.9448 39.3449 16.9448C41.9005 16.9448 44.7323 17.9243 47.3824 19.7896C50.0324 17.9281 52.7698 16.9448 55.3289 16.9448C60.7164 16.9448 65.0092 20.9644 66.1038 27.2397C67.656 35.8681 62.8174 47.4355 48.4769 53.7104C48.2042 54.0032 47.7497 54.0032 47.3825 54.0032V54.0026ZM39.4395 20.863C35.7861 20.863 33.0452 23.6066 32.2236 28.1178C30.944 35.2749 35.1463 44.7856 47.4734 50.0766C59.7097 44.5859 63.9117 35.0758 62.6328 28.0159C61.8112 23.6023 59.0703 20.8588 55.4169 20.8588C53.3157 20.8588 50.9419 21.8383 48.5681 23.7036C47.9284 24.1953 47.0159 24.1953 46.3761 23.7036C43.9149 21.8421 41.5411 20.8626 39.4399 20.8626L39.4395 20.863Z" fill="#40C1AC"/>
<path d="M47.8835 10.5881C46.6869 10.5881 45.707 9.69787 45.707 8.61062V1.97749C45.707 0.890262 46.6868 0 47.8835 0C49.0801 0 50.06 0.890233 50.06 1.97749V8.60683C50.0641 9.69784 49.0843 10.5881 47.8835 10.5881Z" fill="#005EB8"/>
<path d="M65.978 12.7058C65.7155 12.7058 65.4498 12.6271 65.1873 12.5484C64.3093 12.1519 63.956 11.2044 64.3967 10.4144L67.3843 5.11734C67.825 4.32734 68.8781 4.00948 69.7561 4.40601C70.6342 4.80255 70.9875 5.74999 70.5468 6.53999L67.5592 11.8371C67.2093 12.391 66.5936 12.7058 65.978 12.7058H65.978Z" fill="#005EB8"/>
<path d="M29.4929 12.7058C28.7747 12.7058 28.0564 12.391 27.6482 11.8371L24.1627 6.53999C23.6485 5.74999 24.0607 4.7995 25.0851 4.40601C26.1095 4.00948 27.342 4.32731 27.8523 5.11734L31.3378 10.4144C31.8519 11.2044 31.4398 12.1549 30.4154 12.5484C30.1092 12.6271 29.8031 12.7058 29.493 12.7058H29.4929Z" fill="#005EB8"/>
</svg>
