<svg width="84" height="83" viewBox="0 0 84 83" fill="none" xmlns="http://www.w3.org/2000/svg">
<path d="M24.5874 80.7555H3.40467C3.10361 80.7555 2.81488 80.6373 2.602 80.4269C2.38913 80.2166 2.26953 79.9313 2.26953 79.6338V22.375C2.26953 22.0776 2.38913 21.7923 2.602 21.5819C2.81488 21.3716 3.10361 21.2534 3.40467 21.2534H24.5874C24.8885 21.2534 25.1772 21.3716 25.3901 21.5819C25.603 21.7923 25.7226 22.0776 25.7226 22.375V79.6338C25.7226 79.9313 25.603 80.2166 25.3901 80.4269C25.1772 80.6373 24.8885 80.7555 24.5874 80.7555ZM4.5398 78.5122H23.4523V23.4967H4.5398V78.5122Z" fill="#005EB8"/>
<path d="M80.5933 80.7573H59.4105C59.1095 80.7573 58.8207 80.6391 58.6079 80.4288C58.395 80.2184 58.2754 79.9332 58.2754 79.6357V38.7784C58.2754 38.4809 58.395 38.1956 58.6079 37.9853C58.8207 37.7749 59.1095 37.6567 59.4105 37.6567H80.5933C80.8943 37.6567 81.1831 37.7749 81.3959 37.9853C81.6088 38.1956 81.7284 38.4809 81.7284 38.7784V79.6357C81.7284 79.9332 81.6088 80.2184 81.3959 80.4288C81.1831 80.6391 80.8943 80.7573 80.5933 80.7573ZM60.5457 78.5141H79.4581V39.9H60.5457V78.5141Z" fill="#005EB8"/>
<path d="M59.4119 80.7577H24.5883C24.2872 80.7577 23.9985 80.6395 23.7856 80.4291C23.5727 80.2188 23.4531 79.9335 23.4531 79.636V3.36576C23.4531 3.06829 23.5727 2.783 23.7856 2.57266C23.9985 2.36231 24.2872 2.24414 24.5883 2.24414H59.4119C59.713 2.24414 60.0017 2.36231 60.2146 2.57266C60.4275 2.783 60.5471 3.06829 60.5471 3.36576V79.636C60.5471 79.9335 60.4275 80.2188 60.2146 80.4291C60.0017 80.6395 59.713 80.7577 59.4119 80.7577ZM25.7234 78.5144H58.2768V4.48738H25.7234V78.5144Z" fill="#005EB8"/>
<path d="M50.7961 80.7564H33.2015C32.9005 80.7564 32.6118 80.6382 32.3989 80.4279C32.186 80.2175 32.0664 79.9322 32.0664 79.6348V53.1163C32.0664 52.8188 32.186 52.5335 32.3989 52.3231C32.6118 52.1128 32.9005 51.9946 33.2015 51.9946H50.7961C51.0972 51.9946 51.3859 52.1128 51.5988 52.3231C51.8117 52.5335 51.9313 52.8188 51.9313 53.1163V79.6348C51.9313 79.9322 51.8117 80.2175 51.5988 80.4279C51.3859 80.6382 51.0972 80.7564 50.7961 80.7564ZM34.3367 78.5131H49.661V54.2379H34.3367V78.5131Z" fill="#005EB8"/>
<path d="M17.5949 41.0053H10.4027C10.1017 41.0053 9.81293 40.8871 9.60005 40.6768C9.38717 40.4664 9.26758 40.1812 9.26758 39.8837V32.7793C9.26758 32.4819 9.38717 32.1966 9.60005 31.9862C9.81293 31.7759 10.1017 31.6577 10.4027 31.6577H17.5949C17.896 31.6577 18.1847 31.7759 18.3976 31.9862C18.6105 32.1966 18.7301 32.4819 18.7301 32.7793V39.8837C18.7301 40.1812 18.6105 40.4664 18.3976 40.6768C18.1847 40.8871 17.896 41.0053 17.5949 41.0053ZM11.5413 38.7621H16.4598V33.901H11.5378L11.5413 38.7621Z" fill="#40C1AC"/>
<path d="M17.5949 55.68H10.4027C10.1017 55.68 9.81293 55.5618 9.60005 55.3514C9.38717 55.1411 9.26758 54.8558 9.26758 54.5583V47.4551C9.26758 47.1576 9.38717 46.8724 9.60005 46.662C9.81293 46.4517 10.1017 46.3335 10.4027 46.3335H17.5949C17.896 46.3335 18.1847 46.4517 18.3976 46.662C18.6105 46.8724 18.7301 47.1576 18.7301 47.4551V54.5583C18.7301 54.8558 18.6105 55.1411 18.3976 55.3514C18.1847 55.5618 17.896 55.68 17.5949 55.68ZM11.5413 53.4367H16.4598V48.5767H11.5378L11.5413 53.4367Z" fill="#40C1AC"/>
<path d="M17.5949 70.3538H10.4027C10.1017 70.3538 9.81293 70.2356 9.60005 70.0253C9.38717 69.8149 9.26758 69.5296 9.26758 69.2322V62.1289C9.26758 61.8315 9.38717 61.5462 9.60005 61.3358C9.81293 61.1255 10.1017 61.0073 10.4027 61.0073H17.5949C17.896 61.0073 18.1847 61.1255 18.3976 61.3358C18.6105 61.5462 18.7301 61.8315 18.7301 62.1289V69.2322C18.7301 69.5296 18.6105 69.8149 18.3976 70.0253C18.1847 70.2356 17.896 70.3538 17.5949 70.3538ZM11.5413 68.1105H16.4598V63.2506H11.5378L11.5413 68.1105Z" fill="#40C1AC"/>
<path d="M73.5969 55.68H66.4047C66.1036 55.68 65.8149 55.5618 65.602 55.3514C65.3891 55.1411 65.2695 54.8558 65.2695 54.5583V47.4551C65.2695 47.1576 65.3891 46.8724 65.602 46.662C65.8149 46.4517 66.1036 46.3335 66.4047 46.3335H73.5935C73.8945 46.3335 74.1832 46.4517 74.3961 46.662C74.609 46.8724 74.7286 47.1576 74.7286 47.4551V54.5583C74.7286 54.8552 74.6095 55.14 74.3973 55.3503C74.1852 55.5605 73.8973 55.6791 73.5969 55.68ZM67.5432 53.4367H72.4617V48.5767H67.5398L67.5432 53.4367Z" fill="#40C1AC"/>
<path d="M73.5969 70.3538H66.4047C66.1036 70.3538 65.8149 70.2356 65.602 70.0253C65.3891 69.8149 65.2695 69.5296 65.2695 69.2322V62.1289C65.2695 61.8315 65.3891 61.5462 65.602 61.3358C65.8149 61.1255 66.1036 61.0073 66.4047 61.0073H73.5935C73.8945 61.0073 74.1832 61.1255 74.3961 61.3358C74.609 61.5462 74.7286 61.8315 74.7286 62.1289V69.2322C74.7286 69.5291 74.6095 69.8138 74.3973 70.0241C74.1852 70.2343 73.8973 70.3529 73.5969 70.3538ZM67.5432 68.1105H72.4617V63.2506H67.5398L67.5432 68.1105Z" fill="#40C1AC"/>
<path d="M38.1407 17.9139H30.9496C30.6485 17.9139 30.3598 17.7957 30.1469 17.5853C29.934 17.375 29.8145 17.0897 29.8145 16.7922V9.689C29.8145 9.39153 29.934 9.10624 30.1469 8.8959C30.3598 8.68555 30.6485 8.56738 30.9496 8.56738H38.1407C38.4417 8.56738 38.7304 8.68555 38.9433 8.8959C39.1562 9.10624 39.2758 9.39153 39.2758 9.689V16.7922C39.2758 17.0897 39.1562 17.375 38.9433 17.5853C38.7304 17.7957 38.4417 17.9139 38.1407 17.9139ZM32.087 15.6706H37.0055V10.8106H32.0847L32.087 15.6706Z" fill="#40C1AC"/>
<path d="M38.1407 32.5888H30.9496C30.6485 32.5888 30.3598 32.4706 30.1469 32.2603C29.934 32.0499 29.8145 31.7647 29.8145 31.4672V24.3628C29.8145 24.0654 29.934 23.7801 30.1469 23.5697C30.3598 23.3594 30.6485 23.2412 30.9496 23.2412H38.1407C38.4417 23.2412 38.7304 23.3594 38.9433 23.5697C39.1562 23.7801 39.2758 24.0654 39.2758 24.3628V31.4672C39.2758 31.7647 39.1562 32.0499 38.9433 32.2603C38.7304 32.4706 38.4417 32.5888 38.1407 32.5888ZM32.087 30.3456H37.0055V25.4845H32.0847L32.087 30.3456Z" fill="#40C1AC"/>
<path d="M38.1407 47.2625H30.9496C30.6485 47.2625 30.3598 47.1443 30.1469 46.934C29.934 46.7236 29.8145 46.4383 29.8145 46.1409V39.0376C29.8145 38.7402 29.934 38.4549 30.1469 38.2445C30.3598 38.0342 30.6485 37.916 30.9496 37.916H38.1407C38.4417 37.916 38.7304 38.0342 38.9433 38.2445C39.1562 38.4549 39.2758 38.7402 39.2758 39.0376V46.1409C39.2758 46.4383 39.1562 46.7236 38.9433 46.934C38.7304 47.1443 38.4417 47.2625 38.1407 47.2625ZM32.087 45.0192H37.0055V40.1593H32.0847L32.087 45.0192Z" fill="#40C1AC"/>
<path d="M53.0508 17.9139H45.8597C45.5587 17.9139 45.27 17.7957 45.0571 17.5853C44.8442 17.375 44.7246 17.0897 44.7246 16.7922V9.689C44.7246 9.39153 44.8442 9.10624 45.0571 8.8959C45.27 8.68555 45.5587 8.56738 45.8597 8.56738H53.0486C53.3496 8.56738 53.6383 8.68555 53.8512 8.8959C54.0641 9.10624 54.1837 9.39153 54.1837 9.689V16.7922C54.1837 17.0893 54.0644 17.3743 53.852 17.5845C53.6396 17.7948 53.3515 17.9133 53.0508 17.9139ZM46.9971 15.6706H51.9157V10.8106H46.9949L46.9971 15.6706Z" fill="#40C1AC"/>
<path d="M53.0508 32.5888H45.8597C45.5587 32.5888 45.27 32.4706 45.0571 32.2603C44.8442 32.0499 44.7246 31.7647 44.7246 31.4672V24.3628C44.7246 24.0654 44.8442 23.7801 45.0571 23.5697C45.27 23.3594 45.5587 23.2412 45.8597 23.2412H53.0486C53.3496 23.2412 53.6383 23.3594 53.8512 23.5697C54.0641 23.7801 54.1837 24.0654 54.1837 24.3628V31.4672C54.1837 31.7643 54.0644 32.0492 53.852 32.2595C53.6396 32.4698 53.3515 32.5882 53.0508 32.5888ZM46.9971 30.3456H51.9157V25.4845H46.9949L46.9971 30.3456Z" fill="#40C1AC"/>
<path d="M53.0508 47.2625H45.8597C45.5587 47.2625 45.27 47.1443 45.0571 46.934C44.8442 46.7236 44.7246 46.4383 44.7246 46.1409V39.0376C44.7246 38.7402 44.8442 38.4549 45.0571 38.2445C45.27 38.0342 45.5587 37.916 45.8597 37.916H53.0486C53.3496 37.916 53.6383 38.0342 53.8512 38.2445C54.0641 38.4549 54.1837 38.7402 54.1837 39.0376V46.1409C54.1837 46.4379 54.0644 46.7229 53.852 46.9332C53.6396 47.1435 53.3515 47.2619 53.0508 47.2625ZM46.9971 45.0192H51.9157V40.1593H46.9949L46.9971 45.0192Z" fill="#40C1AC"/>
</svg>
