<svg width="77" height="84" viewBox="0 0 77 84" fill="none" xmlns="http://www.w3.org/2000/svg">
<g clip-path="url(#clip0)">
<path d="M29.5159 28.0005H26.9492V30.8005H29.5159V28.0005Z" fill="#40C1AC"/>
<path d="M29.5159 33.5991H26.9492V36.3991H29.5159V33.5991Z" fill="#40C1AC"/>
<path d="M29.5159 39.1997H26.9492V41.9997H29.5159V39.1997Z" fill="#40C1AC"/>
<path d="M29.5159 44.8003H26.9492V47.6003H29.5159V44.8003Z" fill="#40C1AC"/>
<path d="M34.6507 28.0005H32.084V30.8005H34.6507V28.0005Z" fill="#40C1AC"/>
<path d="M34.6507 33.5991H32.084V36.3991H34.6507V33.5991Z" fill="#40C1AC"/>
<path d="M34.6507 39.1997H32.084V41.9997H34.6507V39.1997Z" fill="#40C1AC"/>
<path d="M34.6507 44.8003H32.084V47.6003H34.6507V44.8003Z" fill="#40C1AC"/>
<path d="M39.7835 28.0005H37.2168V30.8005H39.7835V28.0005Z" fill="#40C1AC"/>
<path d="M39.7835 33.5991H37.2168V36.3991H39.7835V33.5991Z" fill="#40C1AC"/>
<path d="M39.7835 39.1997H37.2168V41.9997H39.7835V39.1997Z" fill="#40C1AC"/>
<path d="M39.7835 44.8003H37.2168V47.6003H39.7835V44.8003Z" fill="#40C1AC"/>
<path d="M44.9163 28.0005H42.3496V30.8005H44.9163V28.0005Z" fill="#40C1AC"/>
<path d="M34.6507 22.4028H32.084V25.2028H34.6507V22.4028Z" fill="#40C1AC"/>
<path d="M39.7835 22.4028H37.2168V25.2028H39.7835V22.4028Z" fill="#40C1AC"/>
<path d="M44.9163 22.4028H42.3496V25.2028H44.9163V22.4028Z" fill="#40C1AC"/>
<path d="M44.9163 33.5991H42.3496V36.3991H44.9163V33.5991Z" fill="#40C1AC"/>
<path d="M44.9163 39.1997H42.3496V41.9997H44.9163V39.1997Z" fill="#40C1AC"/>
<path d="M44.9163 44.8003H42.3496V47.6003H44.9163V44.8003Z" fill="#40C1AC"/>
<path d="M50.0491 28.0005H47.4824V30.8005H50.0491V28.0005Z" fill="#40C1AC"/>
<path d="M50.0491 33.5991H47.4824V36.3991H50.0491V33.5991Z" fill="#40C1AC"/>
<path d="M50.0491 39.1997H47.4824V41.9997H50.0491V39.1997Z" fill="#40C1AC"/>
<path d="M50.0491 44.8003H47.4824V47.6003H50.0491V44.8003Z" fill="#40C1AC"/>
<path d="M75.7181 22C75.7176 22 75.7171 22 75.7167 22H56.4667V2.4C56.4671 1.6272 55.8932 1.00053 55.1848 1C55.1843 1 55.1838 1 55.1833 1H21.8167C21.1083 0.999475 20.5338 1.62563 20.5333 2.39843C20.5333 2.39895 20.5333 2.39948 20.5333 2.4V22H1.28333C0.574934 21.9995 0.000481552 22.6256 3.02409e-07 23.3984C3.02409e-07 23.3989 3.02409e-07 23.3995 3.02409e-07 23.4V73.8C-0.000480948 74.5728 0.57349 75.1995 1.28189 75.2C1.28237 75.2 1.28285 75.2 1.28333 75.2H3.96598C3.89155 75.6623 3.85273 76.1306 3.85 76.6V83.6C3.84952 84.3728 4.42349 84.9995 5.13189 85C5.13237 85 5.13285 85 5.13333 85H71.8667C72.5751 85.0005 73.1495 84.3744 73.15 83.6016C73.15 83.6011 73.15 83.6005 73.15 83.6V76.6C73.1474 76.1306 73.1086 75.6623 73.034 75.2H75.7167C76.4251 75.2005 76.9995 74.5744 77 73.8016C77 73.801 77 73.8005 77 73.8V23.4C77.0005 22.6272 76.4265 22.0005 75.7181 22ZM55.1833 61.2C55.1833 62.7465 54.0343 64 52.6167 64C51.1991 64 50.05 62.7465 50.05 61.2C50.05 59.6535 51.1991 58.4 52.6167 58.4C54.0335 58.4019 55.1816 59.6544 55.1833 61.2ZM24.3833 58.4C25.8009 58.4 26.95 59.6535 26.95 61.2C26.95 62.7465 25.8009 64 24.3833 64C22.9657 64 21.8167 62.7465 21.8167 61.2C21.8184 59.6544 22.9665 58.4019 24.3833 58.4ZM16.6833 82.2H6.41667V76.6C6.41667 73.5072 8.71496 71 11.55 71C14.385 71 16.6833 73.5072 16.6833 76.6V82.2ZM8.98333 65.4C8.98333 63.8535 10.1324 62.6 11.55 62.6C12.9676 62.6 14.1167 63.8535 14.1167 65.4C14.1167 66.9465 12.9676 68.2 11.55 68.2C10.1332 68.1981 8.9851 66.9456 8.98333 65.4ZM16.8778 70.5494C16.3938 70.0401 15.8511 69.6019 15.2633 69.2458C17.2207 67.0086 17.1452 63.4638 15.0944 61.3283C13.0436 59.1927 9.79424 59.2754 7.83668 61.5126C5.94328 63.6764 5.94328 67.0817 7.83668 69.2456C6.61173 69.9873 5.59405 71.0773 4.89175 72.3998H2.56667V24.8H20.5333V57.5348C18.771 59.692 18.8305 62.9666 20.67 65.0458C18.745 66.2073 17.3656 68.2093 16.8778 70.5494ZM29.5167 82.2H19.25V72.4C19.25 69.3072 21.5483 66.8 24.3833 66.8C27.2184 66.8 29.5167 69.3072 29.5167 72.4V82.2ZM44.9167 82.2H32.0833V72.4C32.0833 68.5341 34.9562 65.4 38.5 65.4C42.0438 65.4 44.9167 68.5341 44.9167 72.4V82.2ZM34.65 58.4C34.65 56.0804 36.3737 54.2 38.5 54.2C40.6263 54.2 42.35 56.0804 42.35 58.4C42.35 60.7196 40.6263 62.6 38.5 62.6C36.3746 62.5975 34.6522 60.7186 34.65 58.4ZM46.3158 67.5866C45.4565 65.9339 44.1779 64.5873 42.6338 63.7086C45.3443 61.218 45.6908 56.8019 43.4079 53.8449C41.1249 50.888 37.0768 50.5099 34.3662 53.0004C31.6557 55.491 31.3092 59.9071 33.5921 62.8641C33.8275 63.1691 34.0865 63.4515 34.3662 63.7086C32.8221 64.5873 31.5435 65.9339 30.6842 67.5866C30.0095 66.5366 29.1246 65.6677 28.0967 65.0458C30.0642 62.8501 30.0276 59.33 28.0147 57.1836C26.7187 55.8014 24.8474 55.2743 23.1 55.7988V3.8H53.9V55.7988C53.4818 55.673 53.0504 55.6061 52.6167 55.6C49.7892 55.5918 47.4909 58.0857 47.4833 61.1704C47.4798 62.6138 47.9888 64.0028 48.9033 65.0458C47.8754 65.6677 46.9905 66.5366 46.3158 67.5866ZM57.75 76.6V82.2H47.4833V72.4C47.4833 69.3072 49.7816 66.8 52.6167 66.8C55.4517 66.8 57.75 69.3072 57.75 72.4V76.6ZM70.5833 82.2H60.3167V76.6C60.3167 73.5072 62.615 71 65.45 71C68.285 71 70.5833 73.5072 70.5833 76.6V82.2ZM62.8833 65.4C62.8833 63.8535 64.0324 62.6 65.45 62.6C66.8676 62.6 68.0167 63.8535 68.0167 65.4C68.0167 66.9465 66.8676 68.2 65.45 68.2C64.0332 68.1981 62.8851 66.9456 62.8833 65.4ZM74.4333 72.4H72.1083C71.406 71.0775 70.3883 69.9874 69.1633 69.2458C71.1207 67.0086 71.0452 63.4638 68.9944 61.3283C66.9436 59.1929 63.6942 59.2754 61.7367 61.5126C59.8433 63.6764 59.8433 67.0817 61.7367 69.2456C61.1489 69.6018 60.6061 70.0399 60.1222 70.5492C59.6346 68.2091 58.255 66.2071 56.33 65.0456C58.1695 62.9664 58.2292 59.6918 56.4668 57.5346V24.8H74.4335V72.4H74.4333Z" fill="#005EB8"/>
<path d="M62.8831 32.2012H60.3164V54.6012H62.8831V32.2012Z" fill="#40C1AC"/>
<path d="M70.5842 32.2012H68.0176V54.6012H70.5842V32.2012Z" fill="#40C1AC"/>
<path d="M8.98268 32.2012H6.41602V54.6012H8.98268V32.2012Z" fill="#40C1AC"/>
<path d="M16.6839 32.2012H14.1172V54.6012H16.6839V32.2012Z" fill="#40C1AC"/>
<path d="M46.2024 5.59863C46.2019 5.59863 46.2014 5.59863 46.2009 5.59863H30.8009C30.0925 5.59811 29.5181 6.22426 29.5176 6.99706C29.5176 6.99758 29.5176 6.99811 29.5176 6.99863V18.1986C29.5171 18.9714 30.0911 19.5981 30.7995 19.5986C30.7999 19.5986 30.8004 19.5986 30.8009 19.5986H46.2009C46.9093 19.5992 47.4838 18.973 47.4843 18.2002C47.4843 18.1997 47.4843 18.1992 47.4843 18.1986V6.99863C47.4847 6.22583 46.9108 5.59916 46.2024 5.59863ZM44.9176 16.7986H32.0842V8.39863H44.9176V16.7986Z" fill="#40C1AC"/>
</g>
<defs>
<clipPath id="clip0">
<rect width="77" height="84" fill="white"/>
</clipPath>
</defs>
</svg>
