<svg width="71" height="82" viewBox="0 0 71 82" fill="none" xmlns="http://www.w3.org/2000/svg">
<g clip-path="url(#clip0)">
<path d="M63.6042 75.1673H7.39583C3.25417 75.1673 0 71.409 0 66.6257V25.6257C0 20.8423 3.25417 17.084 7.39583 17.084H63.6042C67.7458 17.084 71 20.8423 71 25.6257V66.6257C71 71.409 67.7458 75.1673 63.6042 75.1673ZM7.39583 20.5007C5.02917 20.5007 2.95833 22.8923 2.95833 25.6257V66.6257C2.95833 69.359 5.02917 71.7507 7.39583 71.7507H63.6042C65.9708 71.7507 68.0417 69.359 68.0417 66.6257V25.6257C68.0417 22.8923 65.9708 20.5007 63.6042 20.5007H7.39583Z" fill="#005EB8"/>
<path d="M45.8535 20.5006C44.966 20.5006 44.3743 19.8173 44.3743 18.7923V11.959C44.3743 10.934 43.7827 10.2507 42.8952 10.2507H28.1035C27.216 10.2507 26.6243 10.934 26.6243 11.959V18.7923C26.6243 19.8173 26.0327 20.5006 25.1452 20.5006C24.2577 20.5006 23.666 19.8173 23.666 18.7923V11.959C23.666 9.22565 25.7368 6.83398 28.1035 6.83398H42.8952C45.2618 6.83398 47.3327 9.22565 47.3327 11.959V18.7923C47.3327 19.8173 46.741 20.5006 45.8535 20.5006Z" fill="#005EB8"/>
<path d="M35.5006 47.8321C35.2047 47.8321 35.2047 47.8321 34.9089 47.8321L0.888063 34.1654C0.296396 33.8237 -0.295271 32.7987 0.000562623 31.7737C0.296396 31.0904 1.1839 30.4071 2.0714 30.7487L35.5006 44.4154L68.9297 30.7487C69.8172 30.4071 70.4089 30.7487 70.7047 31.7737C71.0006 32.7987 70.7047 33.4821 69.8172 33.8237L35.7964 47.4904C35.7964 47.8321 35.7964 47.8321 35.5006 47.8321Z" fill="#6FD1C1"/>
</g>
<defs>
<clipPath id="clip0">
<rect width="71" height="82" fill="white"/>
</clipPath>
</defs>
</svg>
