<svg width="71" height="72" viewBox="0 0 71 72" fill="none" xmlns="http://www.w3.org/2000/svg">
<g clip-path="url(#clip0)">
<path d="M54.9864 5.90866C49.2019 2.06199 42.4342 0.0157821 35.5169 0.0219867C15.9227 0.0410903 0.0378575 16.134 2.0052e-05 36.0041C-0.00738643 42.9986 2.03713 49.8372 5.87368 55.6498L0.137362 69.5828C-0.21509 70.4758 0.213037 71.4894 1.0936 71.847C1.50321 72.0132 1.96032 72.0132 2.3701 71.847L16.1096 66.0299C32.481 76.9166 54.4556 72.2834 65.1911 55.6815C75.9266 39.0795 71.3578 16.7954 54.9864 5.90866ZM35.5513 68.5031C35.5399 68.5031 35.5284 68.5031 35.517 68.5031V68.5378H35.5169C28.9908 68.4858 22.6328 66.4338 17.2776 62.6512C16.9952 62.4513 16.6601 62.3421 16.3159 62.3377C16.1004 62.2946 15.8787 62.2946 15.6633 62.3377L4.91197 67.0053L9.41173 56.1375C9.64101 55.5873 9.57628 54.956 9.23993 54.4655C5.45828 49.0739 3.42906 42.6205 3.43502 36.0041C3.41602 18.0362 17.7642 3.45475 35.4826 3.43548C53.2008 3.41622 67.5798 17.9664 67.5988 35.9344C67.6179 53.9024 53.2697 68.4838 35.5513 68.5031Z" fill="#005EB8"/>
<path d="M46.455 26.5755C45.709 21.0638 41.0024 16.998 35.518 17.1275C29.5937 17.1083 24.7703 21.9527 24.7324 27.9605C24.7324 28.9224 25.5014 29.7022 26.4499 29.7022C27.3984 29.7022 28.1674 28.9224 28.1674 27.9605C28.2433 23.8445 31.5952 20.5701 35.6542 20.647C39.7133 20.7239 42.9421 24.123 42.8662 28.2393C42.7914 32.3006 39.5238 35.5535 35.5182 35.5541C34.5697 35.5541 33.8007 36.3339 33.8007 37.2958V45.0984C33.8007 46.0603 34.5697 46.8401 35.5182 46.8401C36.4667 46.8401 37.2357 46.0603 37.2357 45.0984V38.8982C43.137 38.0771 47.2647 32.5599 46.455 26.5755Z" fill="#40C1AC"/>
<path d="M35.3739 54.9952C36.4121 54.9952 37.2537 54.1417 37.2537 53.0889C37.2537 52.0361 36.4121 51.1826 35.3739 51.1826C34.3358 51.1826 33.4941 52.0361 33.4941 53.0889C33.4941 54.1417 34.3358 54.9952 35.3739 54.9952Z" fill="#40C1AC"/>
</g>
<defs>
<clipPath id="clip0">
<rect width="71" height="72" fill="white"/>
</clipPath>
</defs>
</svg>
